<?xml version="1.0" encoding="UTF-8" standalone="no"?>
<!DOCTYPE svg PUBLIC "-//W3C//DTD SVG 1.1//EN"
 "http://www.w3.org/Graphics/SVG/1.1/DTD/svg11.dtd">
<!-- Generated by graphviz version 2.43.0 (0)
 -->
<!-- Title: %3 Pages: 1 -->
<svg width="982pt" height="980pt"
 viewBox="0.00 0.00 982.42 980.00" xmlns="http://www.w3.org/2000/svg" xmlns:xlink="http://www.w3.org/1999/xlink">
<g id="graph0" class="graph" transform="scale(1 1) rotate(0) translate(4 976)">
<title>%3</title>
<polygon fill="white" stroke="transparent" points="-4,4 -4,-976 978.42,-976 978.42,4 -4,4"/>
<!-- P1 -->
<g id="node1" class="node">
<title>P1</title>
<ellipse fill="#d5e8d4" stroke="black" cx="539.48" cy="-954" rx="161.37" ry="18"/>
<text text-anchor="middle" x="539.48" y="-950.3" font-family="Times,serif" font-size="14.00">P1: Core Infrastructure &amp; CI/CD</text>
</g>
<!-- P2 -->
<g id="node2" class="node">
<title>P2</title>
<ellipse fill="#d5e8d4" stroke="black" cx="631.48" cy="-882" rx="152.97" ry="18"/>
<text text-anchor="middle" x="631.48" y="-878.3" font-family="Times,serif" font-size="14.00">P2: Production&#45;Grade Security</text>
</g>
<!-- P1&#45;&gt;P2 -->
<g id="edge1" class="edge">
<title>P1&#45;&gt;P2</title>
<path fill="none" stroke="black" d="M561.76,-936.05C573.53,-927.09 588.17,-915.96 600.99,-906.2"/>
<polygon fill="black" stroke="black" points="603.26,-908.87 609.1,-900.03 599.02,-903.3 603.26,-908.87"/>
</g>
<!-- P4 -->
<g id="node4" class="node">
<title>P4</title>
<ellipse fill="#d5e8d4" stroke="black" cx="449.48" cy="-738" rx="222.86" ry="18"/>
<text text-anchor="middle" x="449.48" y="-734.3" font-family="Times,serif" font-size="14.00">P4: Self&#45;Healing Docs (Monitor &amp; Knowledge)</text>
</g>
<!-- P1&#45;&gt;P4 -->
<g id="edge3" class="edge">
<title>P1&#45;&gt;P4</title>
<path fill="none" stroke="black" d="M507.14,-936.3C493.26,-927.42 478.24,-915.18 469.48,-900 445.36,-858.17 444.58,-800.16 446.69,-766.4"/>
<polygon fill="black" stroke="black" points="450.19,-766.58 447.46,-756.34 443.21,-766.05 450.19,-766.58"/>
</g>
<!-- P3 -->
<g id="node3" class="node">
<title>P3</title>
<ellipse fill="#d5e8d4" stroke="black" cx="632.48" cy="-810" rx="154.87" ry="18"/>
<text text-anchor="middle" x="632.48" y="-806.3" font-family="Times,serif" font-size="14.00">P3: Foundational Observability</text>
</g>
<!-- P2&#45;&gt;P3 -->
<g id="edge2" class="edge">
<title>P2&#45;&gt;P3</title>
<path fill="none" stroke="black" d="M631.73,-863.7C631.84,-855.98 631.97,-846.71 632.1,-838.11"/>
<polygon fill="black" stroke="black" points="635.6,-838.15 632.24,-828.1 628.6,-838.05 635.6,-838.15"/>
</g>
<!-- P3&#45;&gt;P4 -->
<g id="edge4" class="edge">
<title>P3&#45;&gt;P4</title>
<path fill="none" stroke="black" d="M589.58,-792.59C563.59,-782.65 530.24,-769.89 502.59,-759.31"/>
<polygon fill="black" stroke="black" points="503.66,-755.98 493.07,-755.67 501.16,-762.52 503.66,-755.98"/>
</g>
<!-- P13 -->
<g id="node13" class="node">
<title>P13</title>
<ellipse fill="#f8cecc" stroke="black" cx="803.48" cy="-162" rx="170.87" ry="18"/>
<text text-anchor="middle" x="803.48" y="-158.3" font-family="Times,serif" font-size="14.00">P13: Self&#45;Healing Code &amp; Systems</text>
</g>
<!-- P3&#45;&gt;P13 -->
<g id="edge15" class="edge">
<title>P3&#45;&gt;P13</title>
<path fill="none" stroke="black" d="M680.12,-792.81C730.71,-772.24 803.48,-731.44 803.48,-667 803.48,-667 803.48,-667 803.48,-305 803.48,-265 803.48,-218.65 803.48,-190.08"/>
<polygon fill="black" stroke="black" points="806.98,-190.05 803.48,-180.05 799.98,-190.05 806.98,-190.05"/>
</g>
<!-- P5 -->
<g id="node5" class="node">
<title>P5</title>
<ellipse fill="#dae8fc" stroke="black" cx="449.48" cy="-666" rx="136.48" ry="18"/>
<text text-anchor="middle" x="449.48" y="-662.3" font-family="Times,serif" font-size="14.00">P5: Knowledge Graph Core</text>
</g>
<!-- P4&#45;&gt;P5 -->
<g id="edge5" class="edge">
<title>P4&#45;&gt;P5</title>
<path fill="none" stroke="black" d="M449.48,-719.7C449.48,-711.98 449.48,-702.71 449.48,-694.11"/>
<polygon fill="black" stroke="black" points="452.98,-694.1 449.48,-684.1 445.98,-694.1 452.98,-694.1"/>
</g>
<!-- P9 -->
<g id="node9" class="node">
<title>P9</title>
<ellipse fill="#dae8fc" stroke="black" cx="230.48" cy="-378" rx="191.17" ry="18"/>
<text text-anchor="middle" x="230.48" y="-374.3" font-family="Times,serif" font-size="14.00">P9: Self&#45;Healing Docs (Analyze &amp; Plan)</text>
</g>
<!-- P4&#45;&gt;P9 -->
<g id="edge9" class="edge">
<title>P4&#45;&gt;P9</title>
<path fill="none" stroke="black" d="M377.54,-720.96C352.55,-712.86 325.54,-701.02 304.48,-684 268.14,-654.62 248.48,-641.73 248.48,-595 248.48,-595 248.48,-595 248.48,-521 248.48,-480.9 241.33,-434.92 236.04,-406.42"/>
<polygon fill="black" stroke="black" points="239.44,-405.56 234.13,-396.4 232.57,-406.88 239.44,-405.56"/>
</g>
<!-- P6 -->
<g id="node6" class="node">
<title>P6</title>
<ellipse fill="#dae8fc" stroke="black" cx="449.48" cy="-594" rx="154.87" ry="18"/>
<text text-anchor="middle" x="449.48" y="-590.3" font-family="Times,serif" font-size="14.00">P6: GraphRAG Implementation</text>
</g>
<!-- P5&#45;&gt;P6 -->
<g id="edge6" class="edge">
<title>P5&#45;&gt;P6</title>
<path fill="none" stroke="black" d="M449.48,-647.7C449.48,-639.98 449.48,-630.71 449.48,-622.11"/>
<polygon fill="black" stroke="black" points="452.98,-622.1 449.48,-612.1 445.98,-622.1 452.98,-622.1"/>
</g>
<!-- P7 -->
<g id="node7" class="node">
<title>P7</title>
<ellipse fill="#dae8fc" stroke="black" cx="449.48" cy="-522" rx="96.38" ry="18"/>
<text text-anchor="middle" x="449.48" y="-518.3" font-family="Times,serif" font-size="14.00">P7: Explainable AI</text>
</g>
<!-- P6&#45;&gt;P7 -->
<g id="edge7" class="edge">
<title>P6&#45;&gt;P7</title>
<path fill="none" stroke="black" d="M449.48,-575.7C449.48,-567.98 449.48,-558.71 449.48,-550.11"/>
<polygon fill="black" stroke="black" points="452.98,-550.1 449.48,-540.1 445.98,-550.1 452.98,-550.1"/>
</g>
<!-- P8 -->
<g id="node8" class="node">
<title>P8</title>
<ellipse fill="#dae8fc" stroke="black" cx="449.48" cy="-450" rx="139.18" ry="18"/>
<text text-anchor="middle" x="449.48" y="-446.3" font-family="Times,serif" font-size="14.00">P8: Advanced AI Evaluation</text>
</g>
<!-- P7&#45;&gt;P8 -->
<g id="edge8" class="edge">
<title>P7&#45;&gt;P8</title>
<path fill="none" stroke="black" d="M449.48,-503.7C449.48,-495.98 449.48,-486.71 449.48,-478.11"/>
<polygon fill="black" stroke="black" points="452.98,-478.1 449.48,-468.1 445.98,-478.1 452.98,-478.1"/>
</g>
<!-- P8&#45;&gt;P9 -->
<g id="edge10" class="edge">
<title>P8&#45;&gt;P9</title>
<path fill="none" stroke="black" d="M399.79,-433.12C367.74,-422.87 325.84,-409.48 291.74,-398.58"/>
<polygon fill="black" stroke="black" points="292.48,-395.14 281.88,-395.43 290.34,-401.81 292.48,-395.14"/>
</g>
<!-- P10 -->
<g id="node10" class="node">
<title>P10</title>
<ellipse fill="#f8cecc" stroke="black" cx="339.48" cy="-306" rx="120.48" ry="18"/>
<text text-anchor="middle" x="339.48" y="-302.3" font-family="Times,serif" font-size="14.00">P10: Agentic Workflows</text>
</g>
<!-- P8&#45;&gt;P10 -->
<g id="edge11" class="edge">
<title>P8&#45;&gt;P10</title>
<path fill="none" stroke="black" d="M449.8,-431.96C449.33,-412.73 445.96,-381.37 430.48,-360 420.63,-346.39 406.11,-335.72 391.56,-327.63"/>
<polygon fill="black" stroke="black" points="393.02,-324.45 382.54,-322.93 389.79,-330.66 393.02,-324.45"/>
</g>
<!-- P12 -->
<g id="node12" class="node">
<title>P12</title>
<ellipse fill="#f8cecc" stroke="black" cx="626.48" cy="-378" rx="148.67" ry="18"/>
<text text-anchor="middle" x="626.48" y="-374.3" font-family="Times,serif" font-size="14.00">P12: Automated Red Teaming</text>
</g>
<!-- P8&#45;&gt;P12 -->
<g id="edge14" class="edge">
<title>P8&#45;&gt;P12</title>
<path fill="none" stroke="black" d="M490.54,-432.76C515.82,-422.76 548.44,-409.86 575.39,-399.21"/>
<polygon fill="black" stroke="black" points="577.03,-402.32 585.04,-395.39 574.46,-395.81 577.03,-402.32"/>
</g>
<!-- P9&#45;&gt;P10 -->
<g id="edge12" class="edge">
<title>P9&#45;&gt;P10</title>
<path fill="none" stroke="black" d="M256.87,-360.05C271.2,-350.85 289.09,-339.36 304.56,-329.43"/>
<polygon fill="black" stroke="black" points="306.82,-332.14 313.34,-323.79 303.04,-326.25 306.82,-332.14"/>
</g>
<!-- P11 -->
<g id="node11" class="node">
<title>P11</title>
<ellipse fill="#f8cecc" stroke="black" cx="538.48" cy="-234" rx="131.88" ry="18"/>
<text text-anchor="middle" x="538.48" y="-230.3" font-family="Times,serif" font-size="14.00">P11: Multi&#45;Agent Systems</text>
</g>
<!-- P10&#45;&gt;P11 -->
<g id="edge13" class="edge">
<title>P10&#45;&gt;P11</title>
<path fill="none" stroke="black" d="M384.64,-289.12C413.92,-278.82 452.27,-265.33 483.35,-254.39"/>
<polygon fill="black" stroke="black" points="484.89,-257.56 493.16,-250.94 482.57,-250.96 484.89,-257.56"/>
</g>
<!-- P15 -->
<g id="node15" class="node">
<title>P15</title>
<ellipse fill="#e1d5e7" stroke="black" cx="175.48" cy="-234" rx="175.47" ry="18"/>
<text text-anchor="middle" x="175.48" y="-230.3" font-family="Times,serif" font-size="14.00">P15: Dynamic Workflow Generation</text>
</g>
<!-- P10&#45;&gt;P15 -->
<g id="edge18" class="edge">
<title>P10&#45;&gt;P15</title>
<path fill="none" stroke="black" d="M301.45,-288.76C278.29,-278.88 248.49,-266.16 223.69,-255.58"/>
<polygon fill="black" stroke="black" points="225.03,-252.34 214.45,-251.63 222.28,-258.78 225.03,-252.34"/>
</g>
<!-- P11&#45;&gt;P13 -->
<g id="edge16" class="edge">
<title>P11&#45;&gt;P13</title>
<path fill="none" stroke="black" d="M596.31,-217.72C636.58,-207.09 690.51,-192.84 733.25,-181.55"/>
<polygon fill="black" stroke="black" points="734.25,-184.91 743.02,-178.97 732.46,-178.14 734.25,-184.91"/>
</g>
<!-- P14 -->
<g id="node14" class="node">
<title>P14</title>
<ellipse fill="#e1d5e7" stroke="black" cx="375.48" cy="-162" rx="200.66" ry="18"/>
<text text-anchor="middle" x="375.48" y="-158.3" font-family="Times,serif" font-size="14.00">P14: Autonomous Knowledge Acquisition</text>
</g>
<!-- P11&#45;&gt;P14 -->
<g id="edge17" class="edge">
<title>P11&#45;&gt;P14</title>
<path fill="none" stroke="black" d="M500.27,-216.59C477.42,-206.78 448.19,-194.22 423.76,-183.73"/>
<polygon fill="black" stroke="black" points="424.88,-180.4 414.31,-179.67 422.12,-186.84 424.88,-180.4"/>
</g>
<!-- P17 -->
<g id="node17" class="node">
<title>P17</title>
<ellipse fill="#e1d5e7" stroke="black" cx="750.48" cy="-90" rx="142.17" ry="18"/>
<text text-anchor="middle" x="750.48" y="-86.3" font-family="Times,serif" font-size="14.00">P17: Automated Compliance</text>
</g>
<!-- P11&#45;&gt;P17 -->
<g id="edge20" class="edge">
<title>P11&#45;&gt;P17</title>
<path fill="none" stroke="black" d="M553.32,-215.86C573.23,-193.15 607.9,-154.71 623.48,-144 643.56,-130.21 667.77,-119 689.66,-110.5"/>
<polygon fill="black" stroke="black" points="691.07,-113.71 699.2,-106.91 688.61,-107.16 691.07,-113.71"/>
</g>
<!-- P13&#45;&gt;P17 -->
<g id="edge21" class="edge">
<title>P13&#45;&gt;P17</title>
<path fill="none" stroke="black" d="M790.38,-143.7C784.09,-135.39 776.44,-125.28 769.52,-116.14"/>
<polygon fill="black" stroke="black" points="772.26,-113.96 763.43,-108.1 766.68,-118.19 772.26,-113.96"/>
</g>
<!-- P16 -->
<g id="node16" class="node">
<title>P16</title>
<ellipse fill="#e1d5e7" stroke="black" cx="380.48" cy="-90" rx="209.86" ry="18"/>
<text text-anchor="middle" x="380.48" y="-86.3" font-family="Times,serif" font-size="14.00">P16: GS1 Digital Link &amp; EPCIS Integration</text>
</g>
<!-- P14&#45;&gt;P16 -->
<g id="edge19" class="edge">
<title>P14&#45;&gt;P16</title>
<path fill="none" stroke="black" d="M376.72,-143.7C377.27,-135.98 377.93,-126.71 378.55,-118.11"/>
<polygon fill="black" stroke="black" points="382.04,-118.33 379.26,-108.1 375.06,-117.83 382.04,-118.33"/>
</g>
<!-- P18 -->
<g id="node18" class="node">
<title>P18</title>
<ellipse fill="#e1d5e7" stroke="black" cx="446.48" cy="-18" rx="157.07" ry="18"/>
<text text-anchor="middle" x="446.48" y="-14.3" font-family="Times,serif" font-size="14.00">P18: Decentralized Governance</text>
</g>
<!-- P15&#45;&gt;P18 -->
<g id="edge22" class="edge">
<title>P15&#45;&gt;P18</title>
<path fill="none" stroke="black" d="M166.84,-215.61C152.14,-183.28 127.05,-113.43 161.48,-72 180.38,-49.27 241.93,-36.24 303.02,-28.79"/>
<polygon fill="black" stroke="black" points="303.69,-32.24 313.22,-27.6 302.88,-25.29 303.69,-32.24"/>
</g>
<!-- P17&#45;&gt;P18 -->
<g id="edge23" class="edge">
<title>P17&#45;&gt;P18</title>
<path fill="none" stroke="black" d="M685.27,-73.98C637.67,-63.02 573,-48.13 522.97,-36.61"/>
<polygon fill="black" stroke="black" points="523.7,-33.19 513.17,-34.35 522.13,-40.01 523.7,-33.19"/>
</g>
</g>
</svg>
